mtllib export_20250325T152955.mtl

o Plane/BasicEnvironment/StartCube-1
v 0.09999988 0 1.1
v 0.09999991 0.2 0.9000001
v 0.09999988 0.2 1.1
v 0.09999991 0 0.9000001
v -0.1000001 0.2 0.9000001
v -0.1000002 0.2 1.1
v -0.1000001 0 0.9000001
v -0.1000002 0 1.1
vt 0 0
vt 1 1
vt 0 1
vt 1 0
vn 1 0 1.192093E-07
vn 0 1 0
vn -1 0 -1.192093E-07
vn 0 -1 0
vn 1.192093E-07 0 -1
vn -1.192093E-07 0 1
usemtl big-cube-material-dark
f 1/1/1 2/2/1 3/3/1
f 1/1/1 4/4/1 2/2/1
f 3/1/2 5/2/2 6/3/2
f 3/1/2 2/4/2 5/2/2
f 6/1/3 7/2/3 8/3/3
f 6/1/3 5/4/3 7/2/3
f 8/1/4 4/2/4 1/3/4
f 8/1/4 7/4/4 4/2/4
f 4/1/5 5/2/5 2/3/5
f 4/1/5 7/4/5 5/2/5
f 8/1/6 3/2/6 6/3/6
f 8/1/6 1/4/6 3/2/6
o Plane/BasicEnvironment/StartCube-2
v 0.1000001 0 -0.9000001
v 0.1000002 0.2 -1.1
v 0.1000001 0.2 -0.9000001
v 0.1000002 0 -1.1
v -0.09999988 0.2 -1.1
v -0.09999991 0.2 -0.9000001
v -0.09999988 0 -1.1
v -0.09999991 0 -0.9000001
usemtl big-cube-material-dark
f 9/1/1 10/2/1 11/3/1
f 9/1/1 12/4/1 10/2/1
f 11/1/2 13/2/2 14/3/2
f 11/1/2 10/4/2 13/2/2
f 14/1/3 15/2/3 16/3/3
f 14/1/3 13/4/3 15/2/3
f 16/1/4 12/2/4 9/3/4
f 16/1/4 15/4/4 12/2/4
f 12/1/5 13/2/5 10/3/5
f 12/1/5 15/4/5 13/2/5
f 16/1/6 11/2/6 14/3/6
f 16/1/6 9/4/6 11/2/6
o GridBigLShape_0
v 0.09467775 0.001078448 0.09674745
v -0.105487 0.2009136 0.09676185
v 0.09451295 0.2010784 0.0967509
v -0.1053222 0.000913647 0.0967584
v -0.105476 0.2009101 0.2967618
v 0.0945239 0.2010749 0.2967509
v -0.1053112 0.0009102018 0.2967584
v 0.0946887 0.001075002 0.2967474
v -0.1054651 0.2009067 0.4967619
v 0.09453484 0.2010715 0.4967509
v -0.1053003 0.0009067566 0.4967584
v 0.09469964 0.001071557 0.4967475
v -0.1054542 0.2009032 0.6967618
v 0.09454578 0.201068 0.6967509
v -0.1052894 0.0009033114 0.6967584
v 0.09471059 0.001068112 0.6967475
v -0.1056518 0.4009135 0.0967653
v 0.09434815 0.4010783 0.09675436
v -0.1056408 0.40091 0.2967653
v 0.0943591 0.4010749 0.2967544
vn -5.471706E-05 1.722606E-05 -1
vn -0.0008240019 0.9999996 1.727114E-05
vn 5.471706E-05 -1.722606E-05 1
vn 0.0008240019 -0.9999996 -1.727114E-05
vn 0.9999996 0.0008240028 -5.471706E-05
vn -0.9999996 -0.0008240028 5.471706E-05
usemtl plank-material(Clone)_(Instance)
f 17/1/7 18/2/7 19/4/7
f 17/1/7 20/3/7 18/2/7
f 19/1/8 21/2/8 22/4/8
f 19/1/8 18/3/8 21/2/8
f 22/4/9 23/3/9 24/1/9
f 22/4/9 21/2/9 23/3/9
f 24/4/10 20/3/10 17/1/10
f 24/4/10 23/2/10 20/3/10
f 19/3/11 24/4/11 17/1/11
f 19/3/11 22/2/11 24/4/11
f 21/2/12 20/1/12 23/4/12
f 21/2/12 18/3/12 20/1/12
f 22/1/8 25/2/8 26/4/8
f 22/1/8 21/3/8 25/2/8
f 26/4/9 27/3/9 28/1/9
f 26/4/9 25/2/9 27/3/9
f 28/4/10 23/3/10 24/1/10
f 28/4/10 27/2/10 23/3/10
f 22/3/11 28/4/11 24/1/11
f 22/3/11 26/2/11 28/4/11
f 25/2/12 23/1/12 27/4/12
f 25/2/12 21/3/12 23/1/12
f 26/1/8 29/2/8 30/4/8
f 26/1/8 25/3/8 29/2/8
f 30/4/9 31/3/9 32/1/9
f 30/4/9 29/2/9 31/3/9
f 32/4/10 27/3/10 28/1/10
f 32/4/10 31/2/10 27/3/10
f 26/3/11 32/4/11 28/1/11
f 26/3/11 30/2/11 32/4/11
f 29/2/12 27/1/12 31/4/12
f 29/2/12 25/3/12 27/1/12
f 19/1/7 33/2/7 34/4/7
f 19/1/7 18/3/7 33/2/7
f 34/1/8 35/2/8 36/4/8
f 34/1/8 33/3/8 35/2/8
f 36/4/9 21/3/9 22/1/9
f 36/4/9 35/2/9 21/3/9
f 34/3/11 22/4/11 19/1/11
f 34/3/11 36/2/11 22/4/11
f 35/2/12 18/1/12 21/4/12
f 35/2/12 33/3/12 18/1/12
o GridBigLShape_0:1
v -0.0978279 0.001067185 -0.001169568
v 0.1022886 0.2009507 -0.00117729
v -0.09771143 0.2010672 -0.001208237
v 0.1021721 0.0009507192 -0.001138621
v 0.1023195 0.200912 -0.2011773
v -0.09768051 0.2010285 -0.2012083
v 0.102203 0.0009120321 -0.2011387
v -0.09779698 0.001028498 -0.2011696
v 0.1023504 0.2008733 -0.4011773
v -0.09764959 0.2009898 -0.4012083
v 0.1022339 0.000873345 -0.4011387
v -0.09776606 0.0009898106 -0.4011696
v 0.1023813 0.2008346 -0.6011774
v -0.09761866 0.2009511 -0.6012083
v 0.1022649 0.0008346578 -0.6011387
v -0.09773514 0.0009511234 -0.6011696
v 0.102405 0.4009507 -0.00121596
v -0.09759496 0.4010671 -0.001246906
v 0.1024359 0.400912 -0.201216
v -0.09756404 0.4010285 -0.2012469
vn -0.0001546144 0.0001934358 1
vn 0.0005823578 0.9999998 -0.0001933458
vn 0.0001546144 -0.0001934358 -1
vn -0.0005823578 -0.9999998 0.0001933458
vn -0.9999999 0.0005823279 -0.0001547336
vn 0.9999999 -0.0005823279 0.0001547336
usemtl plank-material(Clone)_(Instance)_1
f 37/1/13 38/2/13 39/4/13
f 37/1/13 40/3/13 38/2/13
f 39/1/14 41/2/14 42/4/14
f 39/1/14 38/3/14 41/2/14
f 42/4/15 43/3/15 44/1/15
f 42/4/15 41/2/15 43/3/15
f 44/4/16 40/3/16 37/1/16
f 44/4/16 43/2/16 40/3/16
f 39/3/17 44/4/17 37/1/17
f 39/3/17 42/2/17 44/4/17
f 41/2/18 40/1/18 43/4/18
f 41/2/18 38/3/18 40/1/18
f 42/1/14 45/2/14 46/4/14
f 42/1/14 41/3/14 45/2/14
f 46/4/15 47/3/15 48/1/15
f 46/4/15 45/2/15 47/3/15
f 48/4/16 43/3/16 44/1/16
f 48/4/16 47/2/16 43/3/16
f 42/3/17 48/4/17 44/1/17
f 42/3/17 46/2/17 48/4/17
f 45/2/18 43/1/18 47/4/18
f 45/2/18 41/3/18 43/1/18
f 46/1/14 49/2/14 50/4/14
f 46/1/14 45/3/14 49/2/14
f 50/4/15 51/3/15 52/1/15
f 50/4/15 49/2/15 51/3/15
f 52/4/16 47/3/16 48/1/16
f 52/4/16 51/2/16 47/3/16
f 46/3/17 52/4/17 48/1/17
f 46/3/17 50/2/17 52/4/17
f 49/2/18 47/1/18 51/4/18
f 49/2/18 45/3/18 47/1/18
f 39/1/13 53/2/13 54/4/13
f 39/1/13 38/3/13 53/2/13
f 54/1/14 55/2/14 56/4/14
f 54/1/14 53/3/14 55/2/14
f 56/4/15 41/3/15 42/1/15
f 56/4/15 55/2/15 41/3/15
f 54/3/17 42/4/17 39/1/17
f 54/3/17 56/2/17 42/4/17
f 55/2/18 38/1/18 41/4/18
f 55/2/18 53/3/18 38/1/18
o GridPlank_0
v -0.09501355 0.5003753 0.2998676
v 0.1050556 0.4005137 0.2997943
v 0.1049864 0.5005136 0.2998668
v -0.09494439 0.4003753 0.2997951
v 0.1050535 0.400876 -0.2002056
v 0.1049844 0.5008759 -0.2001331
v -0.09494644 0.4007377 -0.2002048
v -0.09501561 0.5007377 -0.2001324
vt 1 0.5
vt 0 0.5
vt 2.5 0.5
vt 2.5 0
vt 2.5 1
vn 4.11272E-06 -0.0007246732 0.9999997
vn 0.9999998 0.0006915926 -3.72529E-06
vn -4.11272E-06 0.0007246732 -0.9999997
vn -0.9999998 -0.0006915926 3.72529E-06
vn -0.000691682 0.9999995 0.0007245539
vn 0.000691682 -0.9999995 -0.0007245539
usemtl plank-material(Clone)_(Instance)_2
f 57/1/19 58/5/19 59/4/19
f 57/1/19 60/6/19 58/5/19
f 59/1/20 61/7/20 62/8/20
f 59/1/20 58/6/20 61/7/20
f 62/4/21 63/6/21 64/1/21
f 62/4/21 61/5/21 63/6/21
f 64/8/22 60/6/22 57/1/22
f 64/8/22 63/7/22 60/6/22
f 59/3/23 64/8/23 57/1/23
f 59/3/23 62/9/23 64/8/23
f 61/9/24 60/1/24 63/8/24
f 61/9/24 58/3/24 60/1/24
o GridPlank_0:1
v 0.09992591 0.3007874 0.5504614
v -0.100234 0.2011081 0.5502519
v -0.1000738 0.3011077 0.5504692
v 0.09976571 0.2007877 0.550244
v -0.100216 0.2000214 1.050251
v -0.1000558 0.300021 1.050468
v 0.09978377 0.199701 1.050243
v 0.09994397 0.2997007 1.05046
vn -3.612041E-05 0.002173394 -0.9999976
vn -0.9999987 0.001601815 3.957749E-05
vn 3.612041E-05 -0.002173394 0.9999976
vn 0.9999987 -0.001601815 -3.957749E-05
vn 0.001601935 0.9999964 0.002173364
vn -0.001601935 -0.9999964 -0.002173364
usemtl plank-material(Clone)_(Instance)_3
f 65/1/25 66/5/25 67/4/25
f 65/1/25 68/6/25 66/5/25
f 67/1/26 69/7/26 70/8/26
f 67/1/26 66/6/26 69/7/26
f 70/4/27 71/6/27 72/1/27
f 70/4/27 69/5/27 71/6/27
f 72/8/28 68/6/28 65/1/28
f 72/8/28 71/7/28 68/6/28
f 67/3/29 72/8/29 65/1/29
f 67/3/29 70/9/29 72/8/29
f 69/9/30 68/1/30 71/8/30
f 69/9/30 66/3/30 68/1/30
o GridPlank_0:2
v -0.09967892 0.3009193 -0.5474419
v 0.100154 0.200586 -0.5473371
v 0.1003208 0.3005857 -0.5475209
v -0.09984569 0.2009196 -0.5472581
v 0.09995488 0.1996671 -1.047336
v 0.1001216 0.2996668 -1.04752
v -0.1000448 0.2000008 -1.047257
v -0.09987806 0.3000005 -1.047441
vn 0.0003982782 0.001837671 0.9999982
vn 0.9999985 -0.001668334 -0.000395149
vn -0.0003982782 -0.001837671 -0.9999982
vn -0.9999985 0.001668334 0.000395149
vn 0.001667619 0.999997 -0.001838207
vn -0.001667619 -0.999997 0.001838207
usemtl plank-material(Clone)_(Instance)_4
f 73/1/31 74/5/31 75/4/31
f 73/1/31 76/6/31 74/5/31
f 75/1/32 77/7/32 78/8/32
f 75/1/32 74/6/32 77/7/32
f 78/4/33 79/6/33 80/1/33
f 78/4/33 77/5/33 79/6/33
f 80/8/34 76/6/34 73/1/34
f 80/8/34 79/7/34 76/6/34
f 75/3/35 80/8/35 73/1/35
f 75/3/35 78/9/35 80/8/35
f 77/9/36 76/1/36 79/8/36
f 77/9/36 74/3/36 76/1/36
o GridCube_0
v 0.1053715 0.2008888 -0.6026618
v -0.09385744 0.2010252 -0.8034299
v -0.09462706 0.2009783 -0.6034313
v 0.1061411 0.2009357 -0.8026603
v -0.09394676 0.001025166 -0.8034771
v -0.09471638 0.0009782925 -0.6034786
v 0.1060518 0.0009356871 -0.8027076
v 0.1052822 0.000888814 -0.602709
vn 0.0004466175 0.9999999 0.0002362728
vn -0.9999925 0.0004473924 -0.003847837
vn -0.0004466175 -0.9999999 -0.0002362728
vn 0.9999925 -0.0004473924 0.003847837
vn 0.003848075 0.0002343654 -0.9999925
vn -0.003848075 -0.0002343654 0.9999925
usemtl big-cube-material(Clone)_(Instance)
f 81/1/37 82/2/37 83/3/37
f 81/1/37 84/4/37 82/2/37
f 83/1/38 85/2/38 86/3/38
f 83/1/38 82/4/38 85/2/38
f 86/1/39 87/2/39 88/3/39
f 86/1/39 85/4/39 87/2/39
f 88/1/40 84/2/40 81/3/40
f 88/1/40 87/4/40 84/2/40
f 84/1/41 85/2/41 82/3/41
f 84/1/41 87/4/41 85/2/41
f 88/1/42 83/2/42 86/3/42
f 88/1/42 81/4/42 83/2/42
o GridTShape_0
v 0.1497509 0.0009883709 0.8009127
v 0.1496738 0.1009021 0.7008265
v 0.1496834 0.1009883 0.8008265
v 0.1497413 0.0009021927 0.7009127
v 0.04967378 0.1008346 0.7008362
v 0.04968346 0.1009208 0.8008362
v 0.04974128 0.0008347043 0.7009224
v 0.04975095 0.0009208824 0.8009224
v -0.05032619 0.1007672 0.700846
v -0.05031652 0.1008533 0.8008459
v -0.0502587 0.0007672158 0.7009321
v -0.05024903 0.0008533939 0.8009321
v -0.1503262 0.1006997 0.7008557
v -0.1503165 0.1007858 0.8008557
v -0.1502587 0.0006997273 0.7009419
v -0.150249 0.0007859055 0.8009418
v 0.04960629 0.2008346 0.7007501
v 0.04961596 0.2009208 0.8007501
v -0.05039369 0.2007671 0.7007598
v -0.05038402 0.2008533 0.8007598
vt 0.5 0.5
vt 0.5 0
vn 0.9999998 0.0006748846 -9.72794E-05
vn -0.0006749682 0.9999994 -0.0008617162
vn -0.9999998 -0.0006748846 9.72794E-05
vn 0.0006749682 -0.9999994 0.0008617162
vn 9.669778E-05 0.0008617816 0.9999996
vn -9.669778E-05 -0.0008617816 -0.9999996
usemtl plank-material(Clone)_(Instance)_5
f 89/1/43 90/10/43 91/11/43
f 89/1/43 92/6/43 90/10/43
f 91/1/44 93/10/44 94/11/44
f 91/1/44 90/6/44 93/10/44
f 94/11/45 95/6/45 96/1/45
f 94/11/45 93/10/45 95/6/45
f 96/11/46 92/6/46 89/1/46
f 96/11/46 95/10/46 92/6/46
f 91/6/47 96/11/47 89/1/47
f 91/6/47 94/10/47 96/11/47
f 93/10/48 92/1/48 95/11/48
f 93/10/48 90/6/48 92/1/48
f 94/1/44 97/10/44 98/11/44
f 94/1/44 93/6/44 97/10/44
f 98/11/45 99/6/45 100/1/45
f 98/11/45 97/10/45 99/6/45
f 100/11/46 95/6/46 96/1/46
f 100/11/46 99/10/46 95/6/46
f 94/6/47 100/11/47 96/1/47
f 94/6/47 98/10/47 100/11/47
f 97/10/48 95/1/48 99/11/48
f 97/10/48 93/6/48 95/1/48
f 98/1/44 101/10/44 102/11/44
f 98/1/44 97/6/44 101/10/44
f 102/11/45 103/6/45 104/1/45
f 102/11/45 101/10/45 103/6/45
f 104/11/46 99/6/46 100/1/46
f 104/11/46 103/10/46 99/6/46
f 98/6/47 104/11/47 100/1/47
f 98/6/47 102/10/47 104/11/47
f 101/10/48 99/1/48 103/11/48
f 101/10/48 97/6/48 99/1/48
f 94/1/43 105/10/43 106/11/43
f 94/1/43 93/6/43 105/10/43
f 106/1/44 107/10/44 108/11/44
f 106/1/44 105/6/44 107/10/44
f 108/11/45 97/6/45 98/1/45
f 108/11/45 107/10/45 97/6/45
f 106/6/47 98/11/47 94/1/47
f 106/6/47 108/10/47 98/11/47
f 107/10/48 93/1/48 97/11/48
f 107/10/48 105/6/48 93/1/48
