mtllib export_20250327T181120.mtl

o Plane/BasicEnvironment/StartCube-1
v 0.09999988 0 1.1
v 0.09999991 0.2 0.9000001
v 0.09999988 0.2 1.1
v 0.09999991 0 0.9000001
v -0.1000001 0.2 0.9000001
v -0.1000002 0.2 1.1
v -0.1000001 0 0.9000001
v -0.1000002 0 1.1
vt 0 0
vt 1 1
vt 0 1
vt 1 0
vn 1 0 1.192093E-07
vn 0 1 0
vn -1 0 -1.192093E-07
vn 0 -1 0
vn 1.192093E-07 0 -1
vn -1.192093E-07 0 1
usemtl big-cube-material-dark
f 1/1/1 2/2/1 3/3/1
f 1/1/1 4/4/1 2/2/1
f 3/1/2 5/2/2 6/3/2
f 3/1/2 2/4/2 5/2/2
f 6/1/3 7/2/3 8/3/3
f 6/1/3 5/4/3 7/2/3
f 8/1/4 4/2/4 1/3/4
f 8/1/4 7/4/4 4/2/4
f 4/1/5 5/2/5 2/3/5
f 4/1/5 7/4/5 5/2/5
f 8/1/6 3/2/6 6/3/6
f 8/1/6 1/4/6 3/2/6
o Plane/BasicEnvironment/StartCube-2
v 0.1000001 0 -0.9000001
v 0.1000002 0.2 -1.1
v 0.1000001 0.2 -0.9000001
v 0.1000002 0 -1.1
v -0.09999988 0.2 -1.1
v -0.09999991 0.2 -0.9000001
v -0.09999988 0 -1.1
v -0.09999991 0 -0.9000001
usemtl big-cube-material-dark
f 9/1/1 10/2/1 11/3/1
f 9/1/1 12/4/1 10/2/1
f 11/1/2 13/2/2 14/3/2
f 11/1/2 10/4/2 13/2/2
f 14/1/3 15/2/3 16/3/3
f 14/1/3 13/4/3 15/2/3
f 16/1/4 12/2/4 9/3/4
f 16/1/4 15/4/4 12/2/4
f 12/1/5 13/2/5 10/3/5
f 12/1/5 15/4/5 13/2/5
f 16/1/6 11/2/6 14/3/6
f 16/1/6 9/4/6 11/2/6
o GridBigLShape_0
v 0.09444308 0.4014525 -0.5107542
v -0.1055114 0.2014551 -0.5151429
v 0.09443016 0.201453 -0.5103063
v -0.1054984 0.4014546 -0.5155908
v -0.1006748 0.2010069 -0.715084
v 0.09926675 0.2010049 -0.7102473
v -0.1006619 0.4010065 -0.7155319
v 0.09927966 0.4010044 -0.7106953
v -0.09583819 0.2005588 -0.915025
v 0.1041033 0.2005568 -0.9101884
v -0.09582528 0.4005583 -0.9154729
v 0.1041162 0.4005563 -0.9106363
v -0.09100161 0.2001107 -1.114966
v 0.1089399 0.2001086 -1.110129
v -0.0909887 0.4001102 -1.115414
v 0.1089528 0.4001081 -1.110577
v -0.1055243 0.001455567 -0.514695
v 0.09441724 0.001453487 -0.5098584
v -0.1006877 0.001007454 -0.714636
v 0.09925383 0.001005375 -0.7097994
vn -0.02418291 0.002240561 0.999705
vn -6.457721E-05 -0.9999975 0.002239655
vn 0.02418291 -0.002240561 -0.999705
vn 6.457721E-05 0.9999975 -0.002239655
vn 0.9997076 -1.039659E-05 0.02418304
vn -0.9997076 1.039659E-05 -0.02418304
usemtl plank-material(Clone)_(Instance)
f 17/1/7 18/2/7 19/4/7
f 17/1/7 20/3/7 18/2/7
f 19/1/8 21/2/8 22/4/8
f 19/1/8 18/3/8 21/2/8
f 22/4/9 23/3/9 24/1/9
f 22/4/9 21/2/9 23/3/9
f 24/4/10 20/3/10 17/1/10
f 24/4/10 23/2/10 20/3/10
f 19/3/11 24/4/11 17/1/11
f 19/3/11 22/2/11 24/4/11
f 21/2/12 20/1/12 23/4/12
f 21/2/12 18/3/12 20/1/12
f 22/1/8 25/2/8 26/4/8
f 22/1/8 21/3/8 25/2/8
f 26/4/9 27/3/9 28/1/9
f 26/4/9 25/2/9 27/3/9
f 28/4/10 23/3/10 24/1/10
f 28/4/10 27/2/10 23/3/10
f 22/3/11 28/4/11 24/1/11
f 22/3/11 26/2/11 28/4/11
f 25/2/12 23/1/12 27/4/12
f 25/2/12 21/3/12 23/1/12
f 26/1/8 29/2/8 30/4/8
f 26/1/8 25/3/8 29/2/8
f 30/4/9 31/3/9 32/1/9
f 30/4/9 29/2/9 31/3/9
f 32/4/10 27/3/10 28/1/10
f 32/4/10 31/2/10 27/3/10
f 26/3/11 32/4/11 28/1/11
f 26/3/11 30/2/11 32/4/11
f 29/2/12 27/1/12 31/4/12
f 29/2/12 25/3/12 27/1/12
f 19/1/7 33/2/7 34/4/7
f 19/1/7 18/3/7 33/2/7
f 34/1/8 35/2/8 36/4/8
f 34/1/8 33/3/8 35/2/8
f 36/4/9 21/3/9 22/1/9
f 36/4/9 35/2/9 21/3/9
f 34/3/11 22/4/11 19/1/11
f 34/3/11 36/2/11 22/4/11
f 35/2/12 18/1/12 21/4/12
f 35/2/12 33/3/12 18/1/12
o GridCube_0
v 0.3975326 0.00119812 -0.1012696
v 0.3988919 0.2008585 -0.3016041
v 0.3974658 0.2011978 -0.1016095
v 0.3989587 0.0008587996 -0.3012643
v 0.198897 0.2007893 -0.3030301
v 0.1974709 0.2011286 -0.1030354
v 0.1989638 0.0007895753 -0.3026903
v 0.1975377 0.001128896 -0.1026956
vn 0.9999745 0.0003461209 0.007129906
vn -0.0003340154 0.9999985 -0.001699029
vn -0.9999745 -0.0003461209 -0.007129906
vn 0.0003340154 -0.9999985 0.001699029
vn 0.007130502 -0.001696604 -0.9999731
vn -0.007130502 0.001696604 0.9999731
usemtl big-cube-material(Clone)_(Instance)
f 37/1/13 38/2/13 39/3/13
f 37/1/13 40/4/13 38/2/13
f 39/1/14 41/2/14 42/3/14
f 39/1/14 38/4/14 41/2/14
f 42/1/15 43/2/15 44/3/15
f 42/1/15 41/4/15 43/2/15
f 44/1/16 40/2/16 37/3/16
f 44/1/16 43/4/16 40/2/16
f 40/1/17 41/2/17 38/3/17
f 40/1/17 43/4/17 41/2/17
f 44/1/18 39/2/18 42/3/18
f 44/1/18 37/4/18 39/2/18
o GridBigLShape_0:1
v 0.5002209 0.001038125 -0.2982201
v 0.5058153 0.2007802 -0.4983996
v 0.5002828 0.2010379 -0.2984762
v 0.5057534 0.0007803935 -0.4981434
v 0.3058918 0.200835 -0.5039321
v 0.3003594 0.2010928 -0.3040088
v 0.3058299 0.0008352045 -0.503676
v 0.3002975 0.001092936 -0.3037527
v 0.1059684 0.2008898 -0.5094646
v 0.1004359 0.2011476 -0.3095413
v 0.1059065 0.0008900154 -0.5092085
v 0.100374 0.001147747 -0.3092852
v -0.09395506 0.2009446 -0.5149972
v -0.09948753 0.2012024 -0.3150738
v -0.09401698 0.0009448264 -0.5147411
v -0.09954945 0.001202558 -0.3148178
v 0.5058772 0.4007801 -0.4986557
v 0.5003448 0.4010378 -0.2987324
v 0.3059538 0.4008349 -0.5041882
v 0.3004213 0.4010926 -0.3042649
vn 0.9996173 -0.0002740549 0.02766269
vn 0.0003095974 0.9999991 -0.001280582
vn -0.9996173 0.0002740549 -0.02766269
vn -0.0003095974 -0.9999991 0.001280582
vn -0.02766231 0.001288656 0.9996165
vn 0.02766231 -0.001288656 -0.9996165
usemtl plank-material(Clone)_(Instance)_1
f 45/1/19 46/2/19 47/4/19
f 45/1/19 48/3/19 46/2/19
f 47/1/20 49/2/20 50/4/20
f 47/1/20 46/3/20 49/2/20
f 50/4/21 51/3/21 52/1/21
f 50/4/21 49/2/21 51/3/21
f 52/4/22 48/3/22 45/1/22
f 52/4/22 51/2/22 48/3/22
f 47/3/23 52/4/23 45/1/23
f 47/3/23 50/2/23 52/4/23
f 49/2/24 48/1/24 51/4/24
f 49/2/24 46/3/24 48/1/24
f 50/1/20 53/2/20 54/4/20
f 50/1/20 49/3/20 53/2/20
f 54/4/21 55/3/21 56/1/21
f 54/4/21 53/2/21 55/3/21
f 56/4/22 51/3/22 52/1/22
f 56/4/22 55/2/22 51/3/22
f 50/3/23 56/4/23 52/1/23
f 50/3/23 54/2/23 56/4/23
f 53/2/24 51/1/24 55/4/24
f 53/2/24 49/3/24 51/1/24
f 54/1/20 57/2/20 58/4/20
f 54/1/20 53/3/20 57/2/20
f 58/4/21 59/3/21 60/1/21
f 58/4/21 57/2/21 59/3/21
f 60/4/22 55/3/22 56/1/22
f 60/4/22 59/2/22 55/3/22
f 54/3/23 60/4/23 56/1/23
f 54/3/23 58/2/23 60/4/23
f 57/2/24 55/1/24 59/4/24
f 57/2/24 53/3/24 55/1/24
f 47/1/19 61/2/19 62/4/19
f 47/1/19 46/3/19 61/2/19
f 62/1/20 63/2/20 64/4/20
f 62/1/20 61/3/20 63/2/20
f 64/4/21 49/3/21 50/1/21
f 64/4/21 63/2/21 49/3/21
f 62/3/23 50/4/23 47/1/23
f 62/3/23 64/2/23 50/4/23
f 63/2/24 46/1/24 49/4/24
f 63/2/24 61/3/24 46/1/24
o GridCube_0:1
v 0.1498339 0.0008360014 -0.1018546
v 0.1497829 0.2011046 0.09787642
v 0.1498203 0.2008358 -0.1021234
v 0.1497965 0.00110477 0.09814519
v 0.349783 0.2011183 0.09791373
v 0.3498203 0.2008495 -0.1020861
v 0.3497966 0.001118435 0.09818249
v 0.3498339 0.0008496662 -0.1018173
vn -1 -6.832443E-05 -0.0001865029
vn -6.807363E-05 0.9999991 -0.001343856
vn 1 6.832443E-05 0.0001865029
vn 6.807363E-05 -0.9999991 0.001343856
vn -0.0001865625 0.001343843 0.9999991
vn 0.0001865625 -0.001343843 -0.9999991
usemtl big-cube-material(Clone)_(Instance)_1
f 65/1/25 66/2/25 67/3/25
f 65/1/25 68/4/25 66/2/25
f 67/1/26 69/2/26 70/3/26
f 67/1/26 66/4/26 69/2/26
f 70/1/27 71/2/27 72/3/27
f 70/1/27 69/4/27 71/2/27
f 72/1/28 68/2/28 65/3/28
f 72/1/28 71/4/28 68/2/28
f 68/1/29 69/2/29 66/3/29
f 68/1/29 71/4/29 69/2/29
f 72/1/30 67/2/30 70/3/30
f 72/1/30 65/4/30 67/2/30
o GridBigLShape_0:2
v 0.1513945 0.0006860954 0.6975995
v 0.351247 0.2008335 0.6974265
v 0.1512473 0.2006859 0.6978031
v 0.3513941 0.0008336365 0.6972229
v 0.3508702 0.2010368 0.497427
v 0.1508706 0.2008892 0.4978035
v 0.3510174 0.001036911 0.4972234
v 0.1510178 0.0008893699 0.4976
v 0.3504935 0.20124 0.2974274
v 0.1504939 0.2010925 0.297804
v 0.3506407 0.001240185 0.2972239
v 0.1506411 0.001092644 0.2976004
v 0.3501168 0.2014433 0.09742786
v 0.1501172 0.2012958 0.09780443
v 0.350264 0.00144346 0.09722431
v 0.1502643 0.001295919 0.09760088
v 0.3510998 0.4008333 0.6976301
v 0.1511002 0.4006858 0.6980066
v 0.3507231 0.4010366 0.4976305
v 0.1507235 0.4008891 0.4980071
vn 0.001883626 -0.001016372 0.9999977
vn -0.0007357897 0.9999992 0.00101776
vn -0.001883626 0.001016372 -0.9999977
vn 0.0007357897 -0.9999992 -0.00101776
vn -0.999998 -0.0007377052 0.001882851
vn 0.999998 0.0007377052 -0.001882851
usemtl plank-material(Clone)_(Instance)_2
f 73/1/31 74/2/31 75/4/31
f 73/1/31 76/3/31 74/2/31
f 75/1/32 77/2/32 78/4/32
f 75/1/32 74/3/32 77/2/32
f 78/4/33 79/3/33 80/1/33
f 78/4/33 77/2/33 79/3/33
f 80/4/34 76/3/34 73/1/34
f 80/4/34 79/2/34 76/3/34
f 75/3/35 80/4/35 73/1/35
f 75/3/35 78/2/35 80/4/35
f 77/2/36 76/1/36 79/4/36
f 77/2/36 74/3/36 76/1/36
f 78/1/32 81/2/32 82/4/32
f 78/1/32 77/3/32 81/2/32
f 82/4/33 83/3/33 84/1/33
f 82/4/33 81/2/33 83/3/33
f 84/4/34 79/3/34 80/1/34
f 84/4/34 83/2/34 79/3/34
f 78/3/35 84/4/35 80/1/35
f 78/3/35 82/2/35 84/4/35
f 81/2/36 79/1/36 83/4/36
f 81/2/36 77/3/36 79/1/36
f 82/1/32 85/2/32 86/4/32
f 82/1/32 81/3/32 85/2/32
f 86/4/33 87/3/33 88/1/33
f 86/4/33 85/2/33 87/3/33
f 88/4/34 83/3/34 84/1/34
f 88/4/34 87/2/34 83/3/34
f 82/3/35 88/4/35 84/1/35
f 82/3/35 86/2/35 88/4/35
f 85/2/36 83/1/36 87/4/36
f 85/2/36 81/3/36 83/1/36
f 75/1/31 89/2/31 90/4/31
f 75/1/31 74/3/31 89/2/31
f 90/1/32 91/2/32 92/4/32
f 90/1/32 89/3/32 91/2/32
f 92/4/33 77/3/33 78/1/33
f 92/4/33 91/2/33 77/3/33
f 90/3/35 78/4/35 75/1/35
f 90/3/35 92/2/35 78/4/35
f 91/2/36 74/1/36 77/4/36
f 91/2/36 89/3/36 74/1/36
o GridPlank_0
v -0.1997486 0.2001384 0.9983721
v -0.2001015 0.3999963 1.098655
v -0.1997567 0.4001382 0.998656
v -0.2000933 0.1999965 1.098372
v 0.2998956 0.4000143 1.100379
v 0.3002404 0.4001562 1.00038
v 0.2999038 0.2000145 1.100095
v 0.3002486 0.2001564 1.000096
vt 1 0.5
vt 0 0.5
vt 2.5 0.5
vt 2.5 0
vt 2.5 1
vn -0.999994 -3.604038E-05 -0.003447609
vn -4.093375E-05 0.999999 0.00141929
vn 0.999994 3.604038E-05 0.003447609
vn 4.093375E-05 -0.999999 -0.00141929
vn 0.003447555 0.001419423 -0.9999931
vn -0.003447555 -0.001419423 0.9999931
usemtl plank-material(Clone)_(Instance)_3
f 93/1/37 94/5/37 95/4/37
f 93/1/37 96/6/37 94/5/37
f 95/1/38 97/7/38 98/8/38
f 95/1/38 94/6/38 97/7/38
f 98/4/39 99/6/39 100/1/39
f 98/4/39 97/5/39 99/6/39
f 100/8/40 96/6/40 93/1/40
f 100/8/40 99/7/40 96/6/40
f 95/3/41 100/8/41 93/1/41
f 95/3/41 98/9/41 100/8/41
f 97/9/42 96/1/42 99/8/42
f 97/9/42 94/3/42 96/1/42
o GridPlank_0:1
v 0.1494153 0.00102439 1.200001
v 0.2495041 0.20098 1.200008
v 0.1495041 0.2010244 1.200009
v 0.2494153 0.0009800293 1.2
v 0.2494959 0.201 0.7000077
v 0.1494959 0.2010444 0.7000093
v 0.2494072 0.001000022 0.6999997
v 0.1494072 0.001044383 0.7000014
vn 1.633167E-05 -3.998514E-05 1
vn 0.0004436099 0.9999999 3.997785E-05
vn -1.633167E-05 3.998514E-05 -1
vn -0.0004436099 -0.9999999 -3.997785E-05
vn -0.9999999 0.0004436093 1.633167E-05
vn 0.9999999 -0.0004436093 -1.633167E-05
usemtl plank-material(Clone)_(Instance)_4
f 101/1/43 102/5/43 103/4/43
f 101/1/43 104/6/43 102/5/43
f 103/1/44 105/7/44 106/8/44
f 103/1/44 102/6/44 105/7/44
f 106/4/45 107/6/45 108/1/45
f 106/4/45 105/5/45 107/6/45
f 108/8/46 104/6/46 101/1/46
f 108/8/46 107/7/46 104/6/46
f 103/3/47 108/8/47 101/1/47
f 103/3/47 106/9/47 108/8/47
f 105/9/48 104/1/48 107/8/48
f 105/9/48 102/3/48 104/1/48
