mtllib export_20250328T160823.mtl

o Plane/BasicEnvironment/StartCube-1
v 0.09999988 0 1.1
v 0.09999991 0.2 0.9000001
v 0.09999988 0.2 1.1
v 0.09999991 0 0.9000001
v -0.1000001 0.2 0.9000001
v -0.1000002 0.2 1.1
v -0.1000001 0 0.9000001
v -0.1000002 0 1.1
vt 0 0
vt 1 1
vt 0 1
vt 1 0
vn 1 0 1.192093E-07
vn 0 1 0
vn -1 0 -1.192093E-07
vn 0 -1 0
vn 1.192093E-07 0 -1
vn -1.192093E-07 0 1
usemtl big-cube-material-dark
f 1/1/1 2/2/1 3/3/1
f 1/1/1 4/4/1 2/2/1
f 3/1/2 5/2/2 6/3/2
f 3/1/2 2/4/2 5/2/2
f 6/1/3 7/2/3 8/3/3
f 6/1/3 5/4/3 7/2/3
f 8/1/4 4/2/4 1/3/4
f 8/1/4 7/4/4 4/2/4
f 4/1/5 5/2/5 2/3/5
f 4/1/5 7/4/5 5/2/5
f 8/1/6 3/2/6 6/3/6
f 8/1/6 1/4/6 3/2/6
o Plane/BasicEnvironment/StartCube-2
v 0.1000001 0 -0.9000001
v 0.1000002 0.2 -1.1
v 0.1000001 0.2 -0.9000001
v 0.1000002 0 -1.1
v -0.09999988 0.2 -1.1
v -0.09999991 0.2 -0.9000001
v -0.09999988 0 -1.1
v -0.09999991 0 -0.9000001
usemtl big-cube-material-dark
f 9/1/1 10/2/1 11/3/1
f 9/1/1 12/4/1 10/2/1
f 11/1/2 13/2/2 14/3/2
f 11/1/2 10/4/2 13/2/2
f 14/1/3 15/2/3 16/3/3
f 14/1/3 13/4/3 15/2/3
f 16/1/4 12/2/4 9/3/4
f 16/1/4 15/4/4 12/2/4
f 12/1/5 13/2/5 10/3/5
f 12/1/5 15/4/5 13/2/5
f 16/1/6 11/2/6 14/3/6
f 16/1/6 9/4/6 11/2/6
o GridPlank_0
v -0.10138 0.3002406 -0.5008849
v 0.09866291 0.2003361 -0.4994953
v 0.09861555 0.3003361 -0.4995519
v -0.1013326 0.2002406 -0.5008283
v 0.1019956 0.2000548 -0.9994842
v 0.1019482 0.3000548 -0.9995407
v -0.09799998 0.1999593 -1.000817
v -0.09804734 0.2999593 -1.000874
vt 1 0.5
vt 0 0.5
vt 2.5 0.5
vt 2.5 0
vt 2.5 1
vn -0.006665349 0.0005626082 0.9999776
vn 0.9999776 0.0004773735 0.00666505
vn 0.006665349 -0.0005626082 -0.9999776
vn -0.9999776 -0.0004773735 -0.00666505
vn -0.0004736483 0.9999997 -0.0005657672
vn 0.0004736483 -0.9999997 0.0005657672
usemtl plank-material(Clone)_(Instance)
f 17/1/7 18/5/7 19/4/7
f 17/1/7 20/6/7 18/5/7
f 19/1/8 21/7/8 22/8/8
f 19/1/8 18/6/8 21/7/8
f 22/4/9 23/6/9 24/1/9
f 22/4/9 21/5/9 23/6/9
f 24/8/10 20/6/10 17/1/10
f 24/8/10 23/7/10 20/6/10
f 19/3/11 24/8/11 17/1/11
f 19/3/11 22/9/11 24/8/11
f 21/9/12 20/1/12 23/8/12
f 21/9/12 18/3/12 20/1/12
o GridPlank_0:1
v -0.1003642 0.2999369 1.006958
v 0.0995876 0.1998411 1.00663
v 0.09963571 0.299841 1.006794
v -0.1004123 0.199937 1.006795
v 0.09917668 0.2006608 0.5066308
v 0.09922479 0.3006607 0.5067948
v -0.1008232 0.2007567 0.5067953
v -0.1007751 0.3007566 0.5069593
vn 0.0008218288 -0.001639396 0.9999983
vn 0.9999996 -0.0004796982 -0.0008226037
vn -0.0008218288 0.001639396 -0.9999983
vn -0.9999996 0.0004796982 0.0008226037
vn 0.0004811287 0.9999985 0.001639068
vn -0.0004811287 -0.9999985 -0.001639068
usemtl plank-material(Clone)_(Instance)_1
f 25/1/13 26/5/13 27/4/13
f 25/1/13 28/6/13 26/5/13
f 27/1/14 29/7/14 30/8/14
f 27/1/14 26/6/14 29/7/14
f 30/4/15 31/6/15 32/1/15
f 30/4/15 29/5/15 31/6/15
f 32/8/16 28/6/16 25/1/16
f 32/8/16 31/7/16 28/6/16
f 27/3/17 32/8/17 25/1/17
f 27/3/17 30/9/17 32/8/17
f 29/9/18 28/1/18 31/8/18
f 29/9/18 26/3/18 28/1/18
o GridPlank_0:2
v 0.09901789 0.2012918 0.5068101
v -0.1017859 0.2996679 0.5067095
v -0.1009756 0.1996712 0.5068251
v 0.09820759 0.3012884 0.5066946
v -0.1018185 0.2990899 0.006709822
v -0.1010082 0.1990933 0.006825354
v 0.09817492 0.3007105 0.006694879
v 0.09898522 0.2007138 0.006810411
vn 6.532668E-05 0.001155883 0.9999993
vn -0.9999672 -0.008102893 7.471441E-05
vn -6.532668E-05 -0.001155883 -0.9999993
vn 0.9999672 0.008102893 -7.471441E-05
vn 0.008103043 -0.9999665 0.001155317
vn -0.008103043 0.9999665 -0.001155317
usemtl plank-material(Clone)_(Instance)_2
f 33/1/19 34/5/19 35/4/19
f 33/1/19 36/6/19 34/5/19
f 35/1/20 37/7/20 38/8/20
f 35/1/20 34/6/20 37/7/20
f 38/4/21 39/6/21 40/1/21
f 38/4/21 37/5/21 39/6/21
f 40/8/22 36/6/22 33/1/22
f 40/8/22 39/7/22 36/6/22
f 35/3/23 40/8/23 33/1/23
f 35/3/23 38/9/23 40/8/23
f 37/9/24 36/1/24 39/8/24
f 37/9/24 34/3/24 36/1/24
o GridPlank_0:3
v 0.1021696 0.2003753 0.0007144973
v -0.09780743 0.3004157 0.00177571
v -0.09782704 0.2004158 0.001881562
v 0.1021892 0.3003753 0.0006086454
v -0.1007252 0.299887 -0.4982156
v -0.1007448 0.1998871 -0.4981097
v 0.09927145 0.2998466 -0.4993826
v 0.09925184 0.1998466 -0.4992768
vn 0.005835473 0.001057416 0.9999824
vn -0.999983 0.0002021789 0.005835324
vn -0.005835473 -0.001057416 -0.9999824
vn 0.999983 -0.0002021789 -0.005835324
vn -0.0001960993 -0.9999994 0.001058519
vn 0.0001960993 0.9999994 -0.001058519
usemtl plank-material(Clone)_(Instance)_3
f 41/1/25 42/5/25 43/4/25
f 41/1/25 44/6/25 42/5/25
f 43/1/26 45/7/26 46/8/26
f 43/1/26 42/6/26 45/7/26
f 46/4/27 47/6/27 48/1/27
f 46/4/27 45/5/27 47/6/27
f 48/8/28 44/6/28 41/1/28
f 48/8/28 47/7/28 44/6/28
f 43/3/29 48/8/29 41/1/29
f 43/3/29 46/9/29 48/8/29
f 45/9/30 44/1/30 47/8/30
f 45/9/30 42/3/30 44/1/30
o GridTShape_0
v 0.1489802 0.0006930333 0.002100827
v 0.1491451 0.1009516 -0.09763978
v 0.1489908 0.1006927 0.002359771
v 0.1491345 0.0009519605 -0.09789872
v 0.04914519 0.1009626 -0.097794
v 0.04899094 0.1007037 0.002205542
v 0.0491346 0.0009629477 -0.09805295
v 0.04898035 0.0007040204 0.001946598
v -0.05085469 0.1009736 -0.09794823
v -0.05100895 0.1007147 0.002051312
v -0.05086528 0.0009739349 -0.09820718
v -0.05101953 0.0007150076 0.001792369
v -0.1508546 0.1009846 -0.09810247
v -0.1510088 0.1007257 0.001897083
v -0.1508652 0.0009849221 -0.09836141
v -0.1510194 0.0007259948 0.00163814
v 0.04915578 0.2009623 -0.09753506
v 0.04900152 0.2007034 0.002464486
v -0.0508441 0.2009733 -0.09768929
v -0.05099836 0.2007143 0.002310256
vt 0.5 0.5
vt 0.5 0
vn 0.9999988 -0.0001098719 0.001542291
vn 0.000105878 0.9999967 0.002589439
vn -0.9999988 0.0001098719 -0.001542291
vn -0.000105878 -0.9999967 -0.002589439
vn -0.00154257 -0.002589273 0.9999955
vn 0.00154257 0.002589273 -0.9999955
usemtl plank-material(Clone)_(Instance)_4
f 49/1/31 50/10/31 51/11/31
f 49/1/31 52/6/31 50/10/31
f 51/1/32 53/10/32 54/11/32
f 51/1/32 50/6/32 53/10/32
f 54/11/33 55/6/33 56/1/33
f 54/11/33 53/10/33 55/6/33
f 56/11/34 52/6/34 49/1/34
f 56/11/34 55/10/34 52/6/34
f 51/6/35 56/11/35 49/1/35
f 51/6/35 54/10/35 56/11/35
f 53/10/36 52/1/36 55/11/36
f 53/10/36 50/6/36 52/1/36
f 54/1/32 57/10/32 58/11/32
f 54/1/32 53/6/32 57/10/32
f 58/11/33 59/6/33 60/1/33
f 58/11/33 57/10/33 59/6/33
f 60/11/34 55/6/34 56/1/34
f 60/11/34 59/10/34 55/6/34
f 54/6/35 60/11/35 56/1/35
f 54/6/35 58/10/35 60/11/35
f 57/10/36 55/1/36 59/11/36
f 57/10/36 53/6/36 55/1/36
f 58/1/32 61/10/32 62/11/32
f 58/1/32 57/6/32 61/10/32
f 62/11/33 63/6/33 64/1/33
f 62/11/33 61/10/33 63/6/33
f 64/11/34 59/6/34 60/1/34
f 64/11/34 63/10/34 59/6/34
f 58/6/35 64/11/35 60/1/35
f 58/6/35 62/10/35 64/11/35
f 61/10/36 59/1/36 63/11/36
f 61/10/36 57/6/36 59/1/36
f 54/1/31 65/10/31 66/11/31
f 54/1/31 53/6/31 65/10/31
f 66/1/32 67/10/32 68/11/32
f 66/1/32 65/6/32 67/10/32
f 68/11/33 57/6/33 58/1/33
f 68/11/33 67/10/33 57/6/33
f 66/6/35 58/11/35 54/1/35
f 66/6/35 68/10/35 58/11/35
f 67/10/36 53/1/36 57/11/36
f 67/10/36 65/6/36 53/1/36
o GridTShape_0:1
v 0.2016955 0.0008575279 0.196877
v 0.1986585 0.1008672 0.09693276
v 0.2016531 0.1008575 0.1968879
v 0.1987009 0.0008672161 0.0969218
v 0.09870338 0.1008245 0.09992729
v 0.1016979 0.1008148 0.1998824
v 0.09874579 0.0008245077 0.09991633
v 0.1017403 0.0008148195 0.1998715
v -0.001251761 0.1007818 0.1029218
v 0.001742771 0.1007721 0.202877
v -0.001209362 0.0007817992 0.1029109
v 0.001785171 0.000772111 0.202866
v -0.1012069 0.1007391 0.1059163
v -0.09821238 0.1007294 0.2058715
v -0.1011645 0.0007390907 0.1059054
v -0.09816997 0.0007294025 0.2058605
v 0.09866099 0.2008245 0.09993825
v 0.1016555 0.2008148 0.1998934
v -0.00129416 0.2007818 0.1029328
v 0.001700372 0.2007721 0.2028879
vn 0.9995515 0.0004270849 -0.02994528
vn -0.0004239922 0.9999999 0.0001096277
vn -0.9995515 -0.0004270849 0.02994528
vn 0.0004239922 -0.9999999 -0.0001096277
vn 0.02994533 -9.6882E-05 0.9995515
vn -0.02994533 9.6882E-05 -0.9995515
usemtl plank-material(Clone)_(Instance)_5
f 69/1/37 70/10/37 71/11/37
f 69/1/37 72/6/37 70/10/37
f 71/1/38 73/10/38 74/11/38
f 71/1/38 70/6/38 73/10/38
f 74/11/39 75/6/39 76/1/39
f 74/11/39 73/10/39 75/6/39
f 76/11/40 72/6/40 69/1/40
f 76/11/40 75/10/40 72/6/40
f 71/6/41 76/11/41 69/1/41
f 71/6/41 74/10/41 76/11/41
f 73/10/42 72/1/42 75/11/42
f 73/10/42 70/6/42 72/1/42
f 74/1/38 77/10/38 78/11/38
f 74/1/38 73/6/38 77/10/38
f 78/11/39 79/6/39 80/1/39
f 78/11/39 77/10/39 79/6/39
f 80/11/40 75/6/40 76/1/40
f 80/11/40 79/10/40 75/6/40
f 74/6/41 80/11/41 76/1/41
f 74/6/41 78/10/41 80/11/41
f 77/10/42 75/1/42 79/11/42
f 77/10/42 73/6/42 75/1/42
f 78/1/38 81/10/38 82/11/38
f 78/1/38 77/6/38 81/10/38
f 82/11/39 83/6/39 84/1/39
f 82/11/39 81/10/39 83/6/39
f 84/11/40 79/6/40 80/1/40
f 84/11/40 83/10/40 79/6/40
f 78/6/41 84/11/41 80/1/41
f 78/6/41 82/10/41 84/11/41
f 81/10/42 79/1/42 83/11/42
f 81/10/42 77/6/42 79/1/42
f 74/1/37 85/10/37 86/11/37
f 74/1/37 73/6/37 85/10/37
f 86/1/38 87/10/38 88/11/38
f 86/1/38 85/6/38 87/10/38
f 88/11/39 77/6/39 78/1/39
f 88/11/39 87/10/39 77/6/39
f 86/6/41 78/11/41 74/1/41
f 86/6/41 88/10/41 78/11/41
f 87/10/42 73/1/42 77/11/42
f 87/10/42 85/6/42 73/1/42
o GridTShape_0:2
v -0.1504968 0.000811809 -0.5508426
v -0.1502873 0.1004902 -0.4505222
v -0.1504624 0.1008113 -0.5505216
v -0.1503217 0.0004907132 -0.4508433
v -0.05028747 0.1004564 -0.4506974
v -0.05046254 0.1007775 -0.5506968
v -0.05032182 0.0004569205 -0.4510185
v -0.0504969 0.0007780163 -0.5510178
v 0.0497124 0.1004226 -0.4508726
v 0.04953732 0.1007437 -0.550872
v 0.04967804 0.0004231278 -0.4511937
v 0.04950297 0.0007442236 -0.551193
v 0.1497123 0.1003888 -0.4510478
v 0.1495372 0.1007099 -0.5510471
v 0.1496779 0.0003893351 -0.4513688
v 0.1495028 0.0007104309 -0.5513682
v -0.05025311 0.2004559 -0.4503764
v -0.05042819 0.200777 -0.5503758
v 0.04974676 0.2004221 -0.4505516
v 0.04957168 0.2007432 -0.5505509
vn -0.9999985 0.0003379271 0.001751872
vn 0.0003435501 0.9999948 0.003210361
vn 0.9999985 -0.0003379271 -0.001751872
vn -0.0003435501 -0.9999948 -0.003210361
vn -0.001750778 0.003210957 -0.9999933
vn 0.001750778 -0.003210957 0.9999933
usemtl plank-material(Clone)_(Instance)_6
f 89/1/43 90/10/43 91/11/43
f 89/1/43 92/6/43 90/10/43
f 91/1/44 93/10/44 94/11/44
f 91/1/44 90/6/44 93/10/44
f 94/11/45 95/6/45 96/1/45
f 94/11/45 93/10/45 95/6/45
f 96/11/46 92/6/46 89/1/46
f 96/11/46 95/10/46 92/6/46
f 91/6/47 96/11/47 89/1/47
f 91/6/47 94/10/47 96/11/47
f 93/10/48 92/1/48 95/11/48
f 93/10/48 90/6/48 92/1/48
f 94/1/44 97/10/44 98/11/44
f 94/1/44 93/6/44 97/10/44
f 98/11/45 99/6/45 100/1/45
f 98/11/45 97/10/45 99/6/45
f 100/11/46 95/6/46 96/1/46
f 100/11/46 99/10/46 95/6/46
f 94/6/47 100/11/47 96/1/47
f 94/6/47 98/10/47 100/11/47
f 97/10/48 95/1/48 99/11/48
f 97/10/48 93/6/48 95/1/48
f 98/1/44 101/10/44 102/11/44
f 98/1/44 97/6/44 101/10/44
f 102/11/45 103/6/45 104/1/45
f 102/11/45 101/10/45 103/6/45
f 104/11/46 99/6/46 100/1/46
f 104/11/46 103/10/46 99/6/46
f 98/6/47 104/11/47 100/1/47
f 98/6/47 102/10/47 104/11/47
f 101/10/48 99/1/48 103/11/48
f 101/10/48 97/6/48 99/1/48
f 94/1/43 105/10/43 106/11/43
f 94/1/43 93/6/43 105/10/43
f 106/1/44 107/10/44 108/11/44
f 106/1/44 105/6/44 107/10/44
f 108/11/45 97/6/45 98/1/45
f 108/11/45 107/10/45 97/6/45
f 106/6/47 98/11/47 94/1/47
f 106/6/47 108/10/47 98/11/47
f 107/10/48 93/1/48 97/11/48
f 107/10/48 105/6/48 93/1/48
o GridTShape_0:3
v -0.1501021 0.0006910565 0.5000636
v -0.1500809 0.1007637 0.5999909
v -0.1501932 0.100691 0.499991
v -0.1499898 0.0007637925 0.6000635
v -0.05008103 0.1008548 0.5998785
v -0.05019334 0.1007821 0.4998786
v -0.04998985 0.0008548943 0.5999511
v -0.05010216 0.0007821583 0.4999512
v 0.04991888 0.1009459 0.5997661
v 0.04980656 0.1008732 0.4997662
v 0.05001006 0.0009459961 0.5998387
v 0.04989774 0.00087326 0.4998388
v 0.1499188 0.101037 0.5996537
v 0.1498065 0.1009643 0.4996538
v 0.15001 0.001037098 0.5997264
v 0.1498976 0.0009643618 0.4997264
v -0.05017221 0.2008548 0.5998058
v -0.05028453 0.200782 0.4998059
v 0.04982769 0.2009459 0.5996935
v 0.04971538 0.2008731 0.4996936
vn -0.999999 -0.0009110178 0.001123834
vn -0.0009118346 0.9999993 -0.0007263364
vn 0.999999 0.0009110178 -0.001123834
vn 0.0009118346 -0.9999993 0.0007263364
vn -0.001123172 -0.0007273604 -0.9999991
vn 0.001123172 0.0007273604 0.9999991
usemtl plank-material(Clone)_(Instance)_7
f 109/1/49 110/10/49 111/11/49
f 109/1/49 112/6/49 110/10/49
f 111/1/50 113/10/50 114/11/50
f 111/1/50 110/6/50 113/10/50
f 114/11/51 115/6/51 116/1/51
f 114/11/51 113/10/51 115/6/51
f 116/11/52 112/6/52 109/1/52
f 116/11/52 115/10/52 112/6/52
f 111/6/53 116/11/53 109/1/53
f 111/6/53 114/10/53 116/11/53
f 113/10/54 112/1/54 115/11/54
f 113/10/54 110/6/54 112/1/54
f 114/1/50 117/10/50 118/11/50
f 114/1/50 113/6/50 117/10/50
f 118/11/51 119/6/51 120/1/51
f 118/11/51 117/10/51 119/6/51
f 120/11/52 115/6/52 116/1/52
f 120/11/52 119/10/52 115/6/52
f 114/6/53 120/11/53 116/1/53
f 114/6/53 118/10/53 120/11/53
f 117/10/54 115/1/54 119/11/54
f 117/10/54 113/6/54 115/1/54
f 118/1/50 121/10/50 122/11/50
f 118/1/50 117/6/50 121/10/50
f 122/11/51 123/6/51 124/1/51
f 122/11/51 121/10/51 123/6/51
f 124/11/52 119/6/52 120/1/52
f 124/11/52 123/10/52 119/6/52
f 118/6/53 124/11/53 120/1/53
f 118/6/53 122/10/53 124/11/53
f 121/10/54 119/1/54 123/11/54
f 121/10/54 117/6/54 119/1/54
f 114/1/49 125/10/49 126/11/49
f 114/1/49 113/6/49 125/10/49
f 126/1/50 127/10/50 128/11/50
f 126/1/50 125/6/50 127/10/50
f 128/11/51 117/6/51 118/1/51
f 128/11/51 127/10/51 117/6/51
f 126/6/53 118/11/53 114/1/53
f 126/6/53 128/10/53 118/11/53
f 127/10/54 113/1/54 117/11/54
f 127/10/54 125/6/54 113/1/54
