mtllib export_20250320T161808.mtl

o Plane/BasicEnvironment/StartCube-1
v 0.09999988 0 1.1
v 0.09999991 0.2 0.9000001
v 0.09999988 0.2 1.1
v 0.09999991 0 0.9000001
v -0.1000001 0.2 0.9000001
v -0.1000002 0.2 1.1
v -0.1000001 0 0.9000001
v -0.1000002 0 1.1
vt 0 0
vt 1 1
vt 0 1
vt 1 0
vn 1 0 1.192093E-07
vn 0 1 0
vn -1 0 -1.192093E-07
vn 0 -1 0
vn 1.192093E-07 0 -1
vn -1.192093E-07 0 1
usemtl big-cube-material-dark
f 1/1/1 2/2/1 3/3/1
f 1/1/1 4/4/1 2/2/1
f 3/1/2 5/2/2 6/3/2
f 3/1/2 2/4/2 5/2/2
f 6/1/3 7/2/3 8/3/3
f 6/1/3 5/4/3 7/2/3
f 8/1/4 4/2/4 1/3/4
f 8/1/4 7/4/4 4/2/4
f 4/1/5 5/2/5 2/3/5
f 4/1/5 7/4/5 5/2/5
f 8/1/6 3/2/6 6/3/6
f 8/1/6 1/4/6 3/2/6
o Plane/BasicEnvironment/StartCube-2
v 0.1000001 0 -0.9000001
v 0.1000002 0.2 -1.1
v 0.1000001 0.2 -0.9000001
v 0.1000002 0 -1.1
v -0.09999988 0.2 -1.1
v -0.09999991 0.2 -0.9000001
v -0.09999988 0 -1.1
v -0.09999991 0 -0.9000001
usemtl big-cube-material-dark
f 9/1/1 10/2/1 11/3/1
f 9/1/1 12/4/1 10/2/1
f 11/1/2 13/2/2 14/3/2
f 11/1/2 10/4/2 13/2/2
f 14/1/3 15/2/3 16/3/3
f 14/1/3 13/4/3 15/2/3
f 16/1/4 12/2/4 9/3/4
f 16/1/4 15/4/4 12/2/4
f 12/1/5 13/2/5 10/3/5
f 12/1/5 15/4/5 13/2/5
f 16/1/6 11/2/6 14/3/6
f 16/1/6 9/4/6 11/2/6
o GridTShape_0
v 0.09901148 0.2015491 -0.6000459
v -0.0009217308 0.1014831 -0.5996592
v 0.09907822 0.1015496 -0.5997329
v -0.000988473 0.2014825 -0.5999722
v -0.0009951696 0.10117 -0.6996587
v 0.09900479 0.1012366 -0.6997324
v -0.001061912 0.2011696 -0.6999717
v 0.09893805 0.2012361 -0.7000453
v -0.001068608 0.100857 -0.7996582
v 0.09893135 0.1009236 -0.7997319
v -0.001135351 0.2008566 -0.7999712
v 0.09886461 0.2009231 -0.8000448
v -0.001142047 0.100544 -0.8996577
v 0.09885791 0.1006106 -0.8997313
v -0.00120879 0.2005435 -0.8999707
v 0.09879117 0.2006101 -0.9000443
v -0.0009284275 0.001170547 -0.6993458
v 0.09907153 0.001237058 -0.6994194
v -0.001001866 0.000857542 -0.7993453
v 0.09899809 0.000924054 -0.7994189
vt 0.5 0.5
vt 0.5 0
vt 0 0.5
vn 0.0007343888 0.003130044 0.9999949
vn 0.0006674213 -0.9999949 0.003129554
vn -0.0007343888 -0.003130044 -0.9999949
vn -0.0006674213 0.9999949 -0.003129554
vn 0.9999995 0.0006651194 -0.0007364749
vn -0.9999995 -0.0006651194 0.0007364749
usemtl plank-material(Clone)_(Instance)
f 17/1/7 18/5/7 19/6/7
f 17/1/7 20/7/7 18/5/7
f 19/1/8 21/5/8 22/6/8
f 19/1/8 18/7/8 21/5/8
f 22/6/9 23/7/9 24/1/9
f 22/6/9 21/5/9 23/7/9
f 24/6/10 20/7/10 17/1/10
f 24/6/10 23/5/10 20/7/10
f 19/7/11 24/6/11 17/1/11
f 19/7/11 22/5/11 24/6/11
f 21/5/12 20/1/12 23/6/12
f 21/5/12 18/7/12 20/1/12
f 22/1/8 25/5/8 26/6/8
f 22/1/8 21/7/8 25/5/8
f 26/6/9 27/7/9 28/1/9
f 26/6/9 25/5/9 27/7/9
f 28/6/10 23/7/10 24/1/10
f 28/6/10 27/5/10 23/7/10
f 22/7/11 28/6/11 24/1/11
f 22/7/11 26/5/11 28/6/11
f 25/5/12 23/1/12 27/6/12
f 25/5/12 21/7/12 23/1/12
f 26/1/8 29/5/8 30/6/8
f 26/1/8 25/7/8 29/5/8
f 30/6/9 31/7/9 32/1/9
f 30/6/9 29/5/9 31/7/9
f 32/6/10 27/7/10 28/1/10
f 32/6/10 31/5/10 27/7/10
f 26/7/11 32/6/11 28/1/11
f 26/7/11 30/5/11 32/6/11
f 29/5/12 27/1/12 31/6/12
f 29/5/12 25/7/12 27/1/12
f 22/1/7 33/5/7 34/6/7
f 22/1/7 21/7/7 33/5/7
f 34/1/8 35/5/8 36/6/8
f 34/1/8 33/7/8 35/5/8
f 36/6/9 25/7/9 26/1/9
f 36/6/9 35/5/9 25/7/9
f 34/7/11 26/6/11 22/1/11
f 34/7/11 36/5/11 26/6/11
f 35/5/12 21/1/12 25/6/12
f 35/5/12 33/7/12 21/1/12
o GridTShape_0:1
v 0.002503905 0.202138 -0.5997085
v 0.1024038 0.1020433 -0.6007379
v 0.002404273 0.1021407 -0.6004475
v 0.1025034 0.2020405 -0.599999
v 0.1026936 0.101304 -0.5007411
v 0.002694023 0.1014015 -0.5004506
v 0.1027932 0.2013012 -0.5000021
v 0.002793655 0.2013987 -0.4997116
v 0.1029833 0.1005647 -0.4007442
v 0.002983773 0.1006622 -0.4004537
v 0.1030829 0.200562 -0.4000052
v 0.003083405 0.2006594 -0.3997148
v 0.1032731 0.09982544 -0.3007474
v 0.003273523 0.09992293 -0.3004569
v 0.1033727 0.1998227 -0.3000084
v 0.003373155 0.1999202 -0.2997179
v 0.1025939 0.00130674 -0.50148
v 0.002594391 0.001404227 -0.5011896
v 0.1028837 0.000567469 -0.4014832
v 0.002884141 0.0006649568 -0.4011928
vn -0.002897501 0.007392704 -0.9999685
vn -0.00099632 -0.9999722 -0.007389844
vn 0.002897501 -0.007392704 0.9999685
vn 0.00099632 0.9999722 0.007389844
vn -0.9999953 0.0009748777 0.002904534
vn 0.9999953 -0.0009748777 -0.002904534
usemtl plank-material(Clone)_(Instance)_1
f 37/1/13 38/5/13 39/6/13
f 37/1/13 40/7/13 38/5/13
f 39/1/14 41/5/14 42/6/14
f 39/1/14 38/7/14 41/5/14
f 42/6/15 43/7/15 44/1/15
f 42/6/15 41/5/15 43/7/15
f 44/6/16 40/7/16 37/1/16
f 44/6/16 43/5/16 40/7/16
f 39/7/17 44/6/17 37/1/17
f 39/7/17 42/5/17 44/6/17
f 41/5/18 40/1/18 43/6/18
f 41/5/18 38/7/18 40/1/18
f 42/1/14 45/5/14 46/6/14
f 42/1/14 41/7/14 45/5/14
f 46/6/15 47/7/15 48/1/15
f 46/6/15 45/5/15 47/7/15
f 48/6/16 43/7/16 44/1/16
f 48/6/16 47/5/16 43/7/16
f 42/7/17 48/6/17 44/1/17
f 42/7/17 46/5/17 48/6/17
f 45/5/18 43/1/18 47/6/18
f 45/5/18 41/7/18 43/1/18
f 46/1/14 49/5/14 50/6/14
f 46/1/14 45/7/14 49/5/14
f 50/6/15 51/7/15 52/1/15
f 50/6/15 49/5/15 51/7/15
f 52/6/16 47/7/16 48/1/16
f 52/6/16 51/5/16 47/7/16
f 46/7/17 52/6/17 48/1/17
f 46/7/17 50/5/17 52/6/17
f 49/5/18 47/1/18 51/6/18
f 49/5/18 45/7/18 47/1/18
f 42/1/13 53/5/13 54/6/13
f 42/1/13 41/7/13 53/5/13
f 54/1/14 55/5/14 56/6/14
f 54/1/14 53/7/14 55/5/14
f 56/6/15 45/7/15 46/1/15
f 56/6/15 55/5/15 45/7/15
f 54/7/17 46/6/17 42/1/17
f 54/7/17 56/5/17 46/6/17
f 55/5/18 41/1/18 45/6/18
f 55/5/18 53/7/18 41/1/18
o GridTShape_0:2
v 0.09840892 0.201672 -0.000828982
v -0.001806922 0.1018996 0.0006695321
v 0.09818833 0.1016738 -0.0002799222
v -0.001586326 0.2018979 0.0001204724
v -0.002757586 0.1013527 -0.09932446
v 0.09723766 0.1011269 -0.1002739
v -0.00253699 0.2013509 -0.09987352
v 0.09745826 0.2011251 -0.100823
v -0.00370825 0.1008057 -0.1993185
v 0.096287 0.1005799 -0.2002679
v -0.003487654 0.200804 -0.1998675
v 0.09650759 0.2005782 -0.200817
v -0.004658915 0.1002588 -0.2993124
v 0.09533633 0.100033 -0.3002619
v -0.004438319 0.200257 -0.2998615
v 0.09555693 0.2000312 -0.300811
v -0.002978182 0.001354399 -0.0987754
v 0.09701706 0.001128597 -0.09972486
v -0.003928846 0.00080746 -0.1987694
v 0.0960664 0.0005816576 -0.1997188
vn 0.009506642 0.005469391 0.9999399
vn -0.002205959 -0.9999825 0.005490596
vn -0.009506642 -0.005469391 -0.9999399
vn 0.002205959 0.9999825 -0.005490596
vn 0.9999524 -0.002258024 -0.009494542
vn -0.9999524 0.002258024 0.009494542
usemtl plank-material(Clone)_(Instance)_2
f 57/1/19 58/5/19 59/6/19
f 57/1/19 60/7/19 58/5/19
f 59/1/20 61/5/20 62/6/20
f 59/1/20 58/7/20 61/5/20
f 62/6/21 63/7/21 64/1/21
f 62/6/21 61/5/21 63/7/21
f 64/6/22 60/7/22 57/1/22
f 64/6/22 63/5/22 60/7/22
f 59/7/23 64/6/23 57/1/23
f 59/7/23 62/5/23 64/6/23
f 61/5/24 60/1/24 63/6/24
f 61/5/24 58/7/24 60/1/24
f 62/1/20 65/5/20 66/6/20
f 62/1/20 61/7/20 65/5/20
f 66/6/21 67/7/21 68/1/21
f 66/6/21 65/5/21 67/7/21
f 68/6/22 63/7/22 64/1/22
f 68/6/22 67/5/22 63/7/22
f 62/7/23 68/6/23 64/1/23
f 62/7/23 66/5/23 68/6/23
f 65/5/24 63/1/24 67/6/24
f 65/5/24 61/7/24 63/1/24
f 66/1/20 69/5/20 70/6/20
f 66/1/20 65/7/20 69/5/20
f 70/6/21 71/7/21 72/1/21
f 70/6/21 69/5/21 71/7/21
f 72/6/22 67/7/22 68/1/22
f 72/6/22 71/5/22 67/7/22
f 66/7/23 72/6/23 68/1/23
f 66/7/23 70/5/23 72/6/23
f 69/5/24 67/1/24 71/6/24
f 69/5/24 65/7/24 67/1/24
f 62/1/19 73/5/19 74/6/19
f 62/1/19 61/7/19 73/5/19
f 74/1/20 75/5/20 76/6/20
f 74/1/20 73/7/20 75/5/20
f 76/6/21 65/7/21 66/1/21
f 76/6/21 75/5/21 65/7/21
f 74/7/23 66/6/23 62/1/23
f 74/7/23 76/5/23 66/6/23
f 75/5/24 61/1/24 65/6/24
f 75/5/24 73/7/24 61/1/24
o GridTShape_0:3
v -0.003708252 0.20438 0.6004604
v 0.0957528 0.1038838 0.597628
v -0.004239453 0.1043958 0.5987635
v 0.096284 0.203868 0.5993249
v 0.09687948 0.102181 0.6976072
v -0.00311277 0.102693 0.6987427
v 0.09741069 0.2021653 0.699304
v -0.002581569 0.2026772 0.7004396
v 0.09800617 0.1004783 0.7975863
v -0.001986087 0.1009902 0.7987218
v 0.09853736 0.2004625 0.7992832
v -0.001454886 0.2009744 0.8004187
v 0.09913285 0.09877547 0.8975655
v -0.0008594041 0.09928744 0.898701
v 0.09966405 0.1987597 0.8992624
v -0.0003282036 0.1992717 0.9003979
v 0.09634829 0.002196817 0.6959103
v -0.00364397 0.002708788 0.6970458
v 0.09747496 0.0004940326 0.7958894
v -0.002517287 0.001006004 0.797025
vn -0.01126683 0.01702784 -0.9997916
vn -0.005312003 -0.9998419 -0.01696883
vn 0.01126683 -0.01702784 0.9997916
vn 0.005312003 0.9998419 0.01696883
vn -0.9999225 0.005119713 0.01135534
vn 0.9999225 -0.005119713 -0.01135534
usemtl plank-material(Clone)_(Instance)_3
f 77/1/25 78/5/25 79/6/25
f 77/1/25 80/7/25 78/5/25
f 79/1/26 81/5/26 82/6/26
f 79/1/26 78/7/26 81/5/26
f 82/6/27 83/7/27 84/1/27
f 82/6/27 81/5/27 83/7/27
f 84/6/28 80/7/28 77/1/28
f 84/6/28 83/5/28 80/7/28
f 79/7/29 84/6/29 77/1/29
f 79/7/29 82/5/29 84/6/29
f 81/5/30 80/1/30 83/6/30
f 81/5/30 78/7/30 80/1/30
f 82/1/26 85/5/26 86/6/26
f 82/1/26 81/7/26 85/5/26
f 86/6/27 87/7/27 88/1/27
f 86/6/27 85/5/27 87/7/27
f 88/6/28 83/7/28 84/1/28
f 88/6/28 87/5/28 83/7/28
f 82/7/29 88/6/29 84/1/29
f 82/7/29 86/5/29 88/6/29
f 85/5/30 83/1/30 87/6/30
f 85/5/30 81/7/30 83/1/30
f 86/1/26 89/5/26 90/6/26
f 86/1/26 85/7/26 89/5/26
f 90/6/27 91/7/27 92/1/27
f 90/6/27 89/5/27 91/7/27
f 92/6/28 87/7/28 88/1/28
f 92/6/28 91/5/28 87/7/28
f 86/7/29 92/6/29 88/1/29
f 86/7/29 90/5/29 92/6/29
f 89/5/30 87/1/30 91/6/30
f 89/5/30 85/7/30 87/1/30
f 82/1/25 93/5/25 94/6/25
f 82/1/25 81/7/25 93/5/25
f 94/1/26 95/5/26 96/6/26
f 94/1/26 93/7/26 95/5/26
f 96/6/27 85/7/27 86/1/27
f 96/6/27 95/5/27 85/7/27
f 94/7/29 86/6/29 82/1/29
f 94/7/29 96/5/29 86/6/29
f 95/5/30 81/1/30 85/6/30
f 95/5/30 93/7/30 81/1/30
o GridTShape_0:4
v 0.1037894 0.2017787 0.5982091
v 0.003705244 0.101875 0.5997649
v 0.1036998 0.10178 0.5987226
v 0.003794886 0.2018737 0.5992514
v 0.002662503 0.1013624 0.4997717
v 0.102657 0.1012674 0.4987293
v 0.002752144 0.2013611 0.4992581
v 0.1027467 0.2012661 0.4982158
v 0.001619761 0.1008499 0.3997784
v 0.1016143 0.1007549 0.3987361
v 0.001709403 0.2008485 0.3992649
v 0.1017039 0.2007535 0.3982226
v 0.0005770195 0.1003373 0.2997851
v 0.1005716 0.1002423 0.2987428
v 0.000666661 0.2003359 0.2992716
v 0.1006612 0.200241 0.2982293
v 0.002572861 0.001363765 0.5002852
v 0.1025674 0.001268775 0.4992429
v 0.00153012 0.0008511909 0.4002919
v 0.1015247 0.0007562005 0.3992496
vn 0.01042741 0.00512574 0.9999325
vn -0.0008964146 -0.9999865 0.005135364
vn -0.01042741 -0.00512574 -0.9999325
vn 0.0008964146 0.9999865 -0.005135364
vn 0.9999452 -0.0009499036 -0.01042294
vn -0.9999452 0.0009499036 0.01042294
usemtl plank-material(Clone)_(Instance)_4
f 97/1/31 98/5/31 99/6/31
f 97/1/31 100/7/31 98/5/31
f 99/1/32 101/5/32 102/6/32
f 99/1/32 98/7/32 101/5/32
f 102/6/33 103/7/33 104/1/33
f 102/6/33 101/5/33 103/7/33
f 104/6/34 100/7/34 97/1/34
f 104/6/34 103/5/34 100/7/34
f 99/7/35 104/6/35 97/1/35
f 99/7/35 102/5/35 104/6/35
f 101/5/36 100/1/36 103/6/36
f 101/5/36 98/7/36 100/1/36
f 102/1/32 105/5/32 106/6/32
f 102/1/32 101/7/32 105/5/32
f 106/6/33 107/7/33 108/1/33
f 106/6/33 105/5/33 107/7/33
f 108/6/34 103/7/34 104/1/34
f 108/6/34 107/5/34 103/7/34
f 102/7/35 108/6/35 104/1/35
f 102/7/35 106/5/35 108/6/35
f 105/5/36 103/1/36 107/6/36
f 105/5/36 101/7/36 103/1/36
f 106/1/32 109/5/32 110/6/32
f 106/1/32 105/7/32 109/5/32
f 110/6/33 111/7/33 112/1/33
f 110/6/33 109/5/33 111/7/33
f 112/6/34 107/7/34 108/1/34
f 112/6/34 111/5/34 107/7/34
f 106/7/35 112/6/35 108/1/35
f 106/7/35 110/5/35 112/6/35
f 109/5/36 107/1/36 111/6/36
f 109/5/36 105/7/36 107/1/36
f 102/1/31 113/5/31 114/6/31
f 102/1/31 101/7/31 113/5/31
f 114/1/32 115/5/32 116/6/32
f 114/1/32 113/7/32 115/5/32
f 116/6/33 105/7/33 106/1/33
f 116/6/33 115/5/33 105/7/33
f 114/7/35 106/6/35 102/1/35
f 114/7/35 116/5/35 106/6/35
f 115/5/36 101/1/36 105/6/36
f 115/5/36 113/7/36 101/1/36
o GridTShape_0:5
v 0.1016757 0.2009964 0.2992308
v 0.001821023 0.1008568 0.3002812
v 0.1018144 0.1009965 0.2991393
v 0.001682346 0.2008567 0.3003727
v 0.0006789741 0.1009467 0.2002877
v 0.1006724 0.1010865 0.1991458
v 0.000540297 0.2009466 0.2003793
v 0.1005337 0.2010863 0.1992374
v -0.0004630747 0.1010367 0.1002943
v 0.09953031 0.1011764 0.09915236
v -0.0006017518 0.2010366 0.1003858
v 0.09939163 0.2011763 0.09924392
v -0.001605124 0.1011267 0.0003008461
v 0.09838826 0.1012664 -0.0008410835
v -0.001743801 0.2011266 0.0003924021
v 0.09824958 0.2012663 -0.0007495275
v 0.0008176513 0.0009468646 0.2001962
v 0.100811 0.001086578 0.1990543
v -0.0003243976 0.001036831 0.1002027
v 0.09966899 0.001176545 0.0990608
vn 0.01142049 -0.0008996634 0.9999344
vn 0.001386771 -0.9999986 -0.0009155598
vn -0.01142049 0.0008996634 -0.9999344
vn -0.001386771 0.9999986 0.0009155598
vn 0.9999338 0.001397137 -0.0114193
vn -0.9999338 -0.001397137 0.0114193
usemtl plank-material(Clone)_(Instance)_5
f 117/1/37 118/5/37 119/6/37
f 117/1/37 120/7/37 118/5/37
f 119/1/38 121/5/38 122/6/38
f 119/1/38 118/7/38 121/5/38
f 122/6/39 123/7/39 124/1/39
f 122/6/39 121/5/39 123/7/39
f 124/6/40 120/7/40 117/1/40
f 124/6/40 123/5/40 120/7/40
f 119/7/41 124/6/41 117/1/41
f 119/7/41 122/5/41 124/6/41
f 121/5/42 120/1/42 123/6/42
f 121/5/42 118/7/42 120/1/42
f 122/1/38 125/5/38 126/6/38
f 122/1/38 121/7/38 125/5/38
f 126/6/39 127/7/39 128/1/39
f 126/6/39 125/5/39 127/7/39
f 128/6/40 123/7/40 124/1/40
f 128/6/40 127/5/40 123/7/40
f 122/7/41 128/6/41 124/1/41
f 122/7/41 126/5/41 128/6/41
f 125/5/42 123/1/42 127/6/42
f 125/5/42 121/7/42 123/1/42
f 126/1/38 129/5/38 130/6/38
f 126/1/38 125/7/38 129/5/38
f 130/6/39 131/7/39 132/1/39
f 130/6/39 129/5/39 131/7/39
f 132/6/40 127/7/40 128/1/40
f 132/6/40 131/5/40 127/7/40
f 126/7/41 132/6/41 128/1/41
f 126/7/41 130/5/41 132/6/41
f 129/5/42 127/1/42 131/6/42
f 129/5/42 125/7/42 127/1/42
f 122/1/37 133/5/37 134/6/37
f 122/1/37 121/7/37 133/5/37
f 134/1/38 135/5/38 136/6/38
f 134/1/38 133/7/38 135/5/38
f 136/6/39 125/7/39 126/1/39
f 136/6/39 135/5/39 125/7/39
f 134/7/41 126/6/41 122/1/41
f 134/7/41 136/5/41 126/6/41
f 135/5/42 121/1/42 125/6/42
f 135/5/42 133/7/42 121/1/42
o GridSmallCube_0
v 0.1000143 0.001160766 -0.5460804
v 0.09990487 0.100968 -0.6462727
v 0.09984333 0.1011604 -0.5462729
v 0.1000758 0.0009683441 -0.6460802
v -9.497342E-05 0.1007969 -0.6463339
v -0.0001565093 0.1009894 -0.5463341
v 7.598339E-05 0.0007972692 -0.6461414
v 1.444755E-05 0.0009896909 -0.5461416
vn 0.9999984 0.001710749 0.0006120205
vn -0.001709568 0.9999967 -0.001925266
vn -0.9999984 -0.001710749 -0.0006120205
vn 0.001709568 -0.9999967 0.001925266
vn 0.0006153583 -0.001924217 -0.999998
vn -0.0006153583 0.001924217 0.999998
usemtl small-cube-material(Clone)_(Instance)
f 137/1/43 138/2/43 139/3/43
f 137/1/43 140/4/43 138/2/43
f 139/1/44 141/2/44 142/3/44
f 139/1/44 138/4/44 141/2/44
f 142/1/45 143/2/45 144/3/45
f 142/1/45 141/4/45 143/2/45
f 144/1/46 140/2/46 137/3/46
f 144/1/46 143/4/46 140/2/46
f 140/1/47 141/2/47 138/3/47
f 140/1/47 143/4/47 141/2/47
f 144/1/48 139/2/48 142/3/48
f 144/1/48 137/4/48 139/2/48
o GridSmallCube_0:1
v 0.09915412 0.0009485328 -0.05344029
v -0.0006391942 0.1010613 -0.0577684
v 0.09926548 0.1009485 -0.05340437
v -0.0007505515 0.001061352 -0.05780432
v -0.005003256 0.1010303 0.04213633
v 0.09490141 0.1009174 0.04650035
v -0.005114614 0.001030326 0.04210041
v 0.09479006 0.0009175077 0.04646443
vn 0.04364062 0.0003102519 -0.9990472
vn 0.001113573 0.9999993 0.0003591909
vn -0.04364062 -0.0003102519 0.9990472
vn -0.001113573 -0.9999993 -0.0003591909
vn -0.9990467 0.001128188 -0.04364025
vn 0.9990467 -0.001128188 0.04364025
usemtl small-cube-material(Clone)_(Instance)_1
f 145/1/49 146/2/49 147/3/49
f 145/1/49 148/4/49 146/2/49
f 147/1/50 149/2/50 150/3/50
f 147/1/50 146/4/50 149/2/50
f 150/1/51 151/2/51 152/3/51
f 150/1/51 149/4/51 151/2/51
f 152/1/52 148/2/52 145/3/52
f 152/1/52 151/4/52 148/2/52
f 148/1/53 149/2/53 146/3/53
f 148/1/53 151/4/53 149/2/53
f 152/1/54 147/2/54 150/3/54
f 152/1/54 145/4/54 147/2/54
o GridSmallCube_0:2
v -0.002740577 0.001206477 0.6487033
v 0.09733885 0.1011268 0.6484752
v -0.002661108 0.1012063 0.6485525
v 0.09725938 0.001126892 0.648626
v 0.09726141 0.100976 0.5484754
v -0.002738543 0.1010556 0.5485527
v 0.09718195 0.0009761628 0.5486262
v -0.002818011 0.001055748 0.5487035
vn 0.0007743445 0.00150729 0.9999986
vn 0.0007946884 0.9999986 -0.001507906
vn -0.0007743445 -0.00150729 -0.9999986
vn -0.0007946884 -0.9999986 0.001507906
vn 0.9999994 -0.0007958547 -0.0007731455
vn -0.9999994 0.0007958547 0.0007731455
usemtl small-cube-material(Clone)_(Instance)_2
f 153/1/55 154/2/55 155/3/55
f 153/1/55 156/4/55 154/2/55
f 155/1/56 157/2/56 158/3/56
f 155/1/56 154/4/56 157/2/56
f 158/1/57 159/2/57 160/3/57
f 158/1/57 157/4/57 159/2/57
f 160/1/58 156/2/58 153/3/58
f 160/1/58 159/4/58 156/2/58
f 156/1/59 157/2/59 154/3/59
f 156/1/59 159/4/59 157/2/59
f 160/1/60 155/2/60 158/3/60
f 160/1/60 153/4/60 155/2/60
