mtllib export_20250324T142540.mtl

o Plane/BasicEnvironment/StartCube-1
v 0.09999988 0 1.1
v 0.09999991 0.2 0.9000001
v 0.09999988 0.2 1.1
v 0.09999991 0 0.9000001
v -0.1000001 0.2 0.9000001
v -0.1000002 0.2 1.1
v -0.1000001 0 0.9000001
v -0.1000002 0 1.1
vt 0 0
vt 1 1
vt 0 1
vt 1 0
vn 1 0 1.192093E-07
vn 0 1 0
vn -1 0 -1.192093E-07
vn 0 -1 0
vn 1.192093E-07 0 -1
vn -1.192093E-07 0 1
usemtl big-cube-material-dark
f 1/1/1 2/2/1 3/3/1
f 1/1/1 4/4/1 2/2/1
f 3/1/2 5/2/2 6/3/2
f 3/1/2 2/4/2 5/2/2
f 6/1/3 7/2/3 8/3/3
f 6/1/3 5/4/3 7/2/3
f 8/1/4 4/2/4 1/3/4
f 8/1/4 7/4/4 4/2/4
f 4/1/5 5/2/5 2/3/5
f 4/1/5 7/4/5 5/2/5
f 8/1/6 3/2/6 6/3/6
f 8/1/6 1/4/6 3/2/6
o Plane/BasicEnvironment/StartCube-2
v 0.1000001 0 -0.9000001
v 0.1000002 0.2 -1.1
v 0.1000001 0.2 -0.9000001
v 0.1000002 0 -1.1
v -0.09999988 0.2 -1.1
v -0.09999991 0.2 -0.9000001
v -0.09999988 0 -1.1
v -0.09999991 0 -0.9000001
usemtl big-cube-material-dark
f 9/1/1 10/2/1 11/3/1
f 9/1/1 12/4/1 10/2/1
f 11/1/2 13/2/2 14/3/2
f 11/1/2 10/4/2 13/2/2
f 14/1/3 15/2/3 16/3/3
f 14/1/3 13/4/3 15/2/3
f 16/1/4 12/2/4 9/3/4
f 16/1/4 15/4/4 12/2/4
f 12/1/5 13/2/5 10/3/5
f 12/1/5 15/4/5 13/2/5
f 16/1/6 11/2/6 14/3/6
f 16/1/6 9/4/6 11/2/6
o GridPlank_0
v 0.2030898 0.001001962 0.4544679
v 0.1030779 0.200996 0.4544416
v 0.2030779 0.201002 0.4544668
v 0.1030898 0.0009960027 0.4544427
v 0.102952 0.2009987 0.9544417
v 0.202952 0.2010047 0.9544668
v 0.1029639 0.0009987277 0.9544427
v 0.2029639 0.001004687 0.9544679
vt 1 0.5
vt 0 0.5
vt 2.5 0.5
vt 2.5 0
vt 2.5 1
vn 0.0002517104 -5.450082E-06 -1
vn -5.958984E-05 1 -5.465085E-06
vn -0.0002517104 5.450082E-06 1
vn 5.958984E-05 -1 5.465085E-06
vn 1 5.959122E-05 0.0002517104
vn -1 -5.959122E-05 -0.0002517104
usemtl plank-material(Clone)_(Instance)
f 17/1/7 18/5/7 19/4/7
f 17/1/7 20/6/7 18/5/7
f 19/1/8 21/7/8 22/8/8
f 19/1/8 18/6/8 21/7/8
f 22/4/9 23/6/9 24/1/9
f 22/4/9 21/5/9 23/6/9
f 24/8/10 20/6/10 17/1/10
f 24/8/10 23/7/10 20/6/10
f 19/3/11 24/8/11 17/1/11
f 19/3/11 22/9/11 24/8/11
f 21/9/12 20/1/12 23/8/12
f 21/9/12 18/3/12 20/1/12
o GridPlank_0:1
v 0.196327 0.0003095147 -1.050095
v 0.1003138 0.2022537 -1.049957
v 0.2002941 0.20027 -1.049835
v 0.0963468 0.002293204 -1.050218
v 0.09968925 0.2016138 -0.5499578
v 0.1996695 0.1996301 -0.5498354
v 0.0957222 0.001653266 -0.5502186
v 0.1957024 -0.0003304232 -0.5500963
vn 0.001249194 0.001279876 -0.9999985
vn 0.0198353 0.9998024 0.001304403
vn -0.001249194 -0.001279876 0.9999985
vn -0.0198353 -0.9998024 -0.001304403
vn 0.9998025 -0.01983689 0.001223504
vn -0.9998025 0.01983689 -0.001223504
usemtl plank-material(Clone)_(Instance)_1
f 25/1/13 26/5/13 27/4/13
f 25/1/13 28/6/13 26/5/13
f 27/1/14 29/7/14 30/8/14
f 27/1/14 26/6/14 29/7/14
f 30/4/15 31/6/15 32/1/15
f 30/4/15 29/5/15 31/6/15
f 32/8/16 28/6/16 25/1/16
f 32/8/16 31/7/16 28/6/16
f 27/3/17 32/8/17 25/1/17
f 27/3/17 30/9/17 32/8/17
f 29/9/18 28/1/18 31/8/18
f 29/9/18 26/3/18 28/1/18
o GridPlank_0:2
v 0.869512 0.0009970336 -0.3824067
v 0.9695063 0.2009999 -0.382406
v 0.8695063 0.200997 -0.3824062
v 0.969512 0.000999874 -0.3824066
v 0.9695072 0.2010012 -0.8824061
v 0.8695071 0.2009984 -0.8824063
v 0.9695129 0.001001227 -0.8824067
v 0.8695129 0.0009983866 -0.8824068
vn -1.66893E-06 -2.70611E-06 1
vn -2.840369E-05 1 2.706068E-06
vn 1.66893E-06 2.70611E-06 -1
vn 2.840369E-05 -1 -2.706068E-06
vn -1 -2.840368E-05 -1.66893E-06
vn 1 2.840368E-05 1.66893E-06
usemtl plank-material(Clone)
f 33/1/19 34/5/19 35/4/19
f 33/1/19 36/6/19 34/5/19
f 35/1/20 37/7/20 38/8/20
f 35/1/20 34/6/20 37/7/20
f 38/4/21 39/6/21 40/1/21
f 38/4/21 37/5/21 39/6/21
f 40/8/22 36/6/22 33/1/22
f 40/8/22 39/7/22 36/6/22
f 35/3/23 40/8/23 33/1/23
f 35/3/23 38/9/23 40/8/23
f 37/9/24 36/1/24 39/8/24
f 37/9/24 34/3/24 36/1/24
o GridPlank_0:3
v 0.197935 0.0009973793 -0.047484
v 0.0979647 0.2010122 -0.04756209
v 0.1979647 0.2009974 -0.04747963
v 0.09793507 0.001012196 -0.04756645
v 0.09755242 0.2010013 0.4524378
v 0.1975524 0.2009865 0.4525202
v 0.09752279 0.001001343 0.4524334
v 0.1975228 0.0009865261 0.4525159
vn 0.0008245706 2.170633E-05 -0.9999996
vn 0.0001481532 1 2.182852E-05
vn -0.0008245706 -2.170633E-05 0.9999996
vn -0.0001481532 -1 -2.182852E-05
vn 0.9999996 -0.0001481712 0.0008245706
vn -0.9999996 0.0001481712 -0.0008245706
usemtl plank-material(Clone)_(Instance)_2
f 41/1/25 42/5/25 43/4/25
f 41/1/25 44/6/25 42/5/25
f 43/1/26 45/7/26 46/8/26
f 43/1/26 42/6/26 45/7/26
f 46/4/27 47/6/27 48/1/27
f 46/4/27 45/5/27 47/6/27
f 48/8/28 44/6/28 41/1/28
f 48/8/28 47/7/28 44/6/28
f 43/3/29 48/8/29 41/1/29
f 43/3/29 46/9/29 48/8/29
f 45/9/30 44/1/30 47/8/30
f 45/9/30 42/3/30 44/1/30
o GridPlank_0:4
v 0.2001346 0.0009959834 -0.5481532
v 0.1001497 0.2010033 -0.5478628
v 0.2001492 0.200996 -0.5481541
v 0.100135 0.001003298 -0.5478618
v 0.1016065 0.2010055 -0.0478649
v 0.201606 0.2009982 -0.04815626
v 0.1015918 0.001005511 -0.04786397
v 0.2015914 0.0009981964 -0.04815533
vn -0.002913594 -4.426016E-06 -0.9999958
vn 7.31299E-05 1 -4.639107E-06
vn 0.002913594 4.426016E-06 0.9999958
vn -7.31299E-05 -1 4.639107E-06
vn 0.9999958 -7.314311E-05 -0.002913594
vn -0.9999958 7.314311E-05 0.002913594
usemtl plank-material(Clone)_(Instance)_3
f 49/1/31 50/5/31 51/4/31
f 49/1/31 52/6/31 50/5/31
f 51/1/32 53/7/32 54/8/32
f 51/1/32 50/6/32 53/7/32
f 54/4/33 55/6/33 56/1/33
f 54/4/33 53/5/33 55/6/33
f 56/8/34 52/6/34 49/1/34
f 56/8/34 55/7/34 52/6/34
f 51/3/35 56/8/35 49/1/35
f 51/3/35 54/9/35 56/8/35
f 53/9/36 52/1/36 55/8/36
f 53/9/36 50/3/36 52/1/36
